<svg xmlns="http://www.w3.org/2000/svg">
  <symbol id="home" viewBox="0 0 24 24"><path d="M3 10.8 12 3l9 7.8v9.7a.5.5 0 0 1-.5.5H15v-6H9v6H3.5a.5.5 0 0 1-.5-.5v-9.7Z" fill="none" stroke="currentColor" stroke-width="1.8" stroke-linejoin="round"/></symbol>
  <symbol id="projects" viewBox="0 0 24 24"><path d="M4 5.5h6l1.4 2H20v11H4z" fill="none" stroke="currentColor" stroke-width="1.8" stroke-linejoin="round"/></symbol>
  <symbol id="key" viewBox="0 0 24 24"><circle cx="8.5" cy="12" r="4" fill="none" stroke="currentColor" stroke-width="1.8"/><path d="M12.5 12H21m-3 0v3m-3-3v2" fill="none" stroke="currentColor" stroke-width="1.8" stroke-linecap="round"/></symbol>
  <symbol id="history" viewBox="0 0 24 24"><path d="M4 8V4m0 0h4M4 4l3.2 3.2A8 8 0 1 1 4.7 14" fill="none" stroke="currentColor" stroke-width="1.8" stroke-linecap="round" stroke-linejoin="round"/><path d="M12 8v4l2.8 1.8" fill="none" stroke="currentColor" stroke-width="1.8" stroke-linecap="round"/></symbol>
  <symbol id="bot" viewBox="0 0 24 24"><rect x="4" y="7" width="16" height="12" rx="3" fill="none" stroke="currentColor" stroke-width="1.8"/><path d="M12 3v4M8.5 12h.01M15.5 12h.01M9 16h6" fill="none" stroke="currentColor" stroke-width="1.8" stroke-linecap="round"/></symbol>
  <symbol id="plus" viewBox="0 0 24 24"><path d="M12 5v14M5 12h14" fill="none" stroke="currentColor" stroke-width="2" stroke-linecap="round"/></symbol>
  <symbol id="arrow" viewBox="0 0 24 24"><path d="M5 12h14m-5-5 5 5-5 5" fill="none" stroke="currentColor" stroke-width="1.8" stroke-linecap="round" stroke-linejoin="round"/></symbol>
  <symbol id="external" viewBox="0 0 24 24"><path d="M14 5h5v5M19 5l-8 8" fill="none" stroke="currentColor" stroke-width="1.8" stroke-linecap="round"/><path d="M18 13v5a1 1 0 0 1-1 1H6a1 1 0 0 1-1-1V7a1 1 0 0 1 1-1h5" fill="none" stroke="currentColor" stroke-width="1.8" stroke-linecap="round"/></symbol>
  <symbol id="check" viewBox="0 0 24 24"><path d="m5 12 4 4L19 6" fill="none" stroke="currentColor" stroke-width="2" stroke-linecap="round" stroke-linejoin="round"/></symbol>
  <symbol id="x" viewBox="0 0 24 24"><path d="m7 7 10 10M17 7 7 17" fill="none" stroke="currentColor" stroke-width="2" stroke-linecap="round"/></symbol>
  <symbol id="copy" viewBox="0 0 24 24"><rect x="8" y="8" width="11" height="11" rx="2" fill="none" stroke="currentColor" stroke-width="1.8"/><path d="M16 8V6a2 2 0 0 0-2-2H6a2 2 0 0 0-2 2v8a2 2 0 0 0 2 2h2" fill="none" stroke="currentColor" stroke-width="1.8"/></symbol>
  <symbol id="menu" viewBox="0 0 24 24"><path d="M4 7h16M4 12h16M4 17h16" fill="none" stroke="currentColor" stroke-width="2" stroke-linecap="round"/></symbol>
  <symbol id="shield" viewBox="0 0 24 24"><path d="M12 3 20 6v5c0 5.2-3.4 8.5-8 10-4.6-1.5-8-4.8-8-10V6z" fill="none" stroke="currentColor" stroke-width="1.8" stroke-linejoin="round"/><path d="m8.5 12 2.2 2.2 4.8-5" fill="none" stroke="currentColor" stroke-width="1.8" stroke-linecap="round"/></symbol>
  <symbol id="git" viewBox="0 0 24 24"><circle cx="7" cy="5" r="2" fill="none" stroke="currentColor" stroke-width="1.8"/><circle cx="17" cy="8" r="2" fill="none" stroke="currentColor" stroke-width="1.8"/><circle cx="7" cy="19" r="2" fill="none" stroke="currentColor" stroke-width="1.8"/><path d="M7 7v10M9 8h4a4 4 0 0 0 4-4v2" fill="none" stroke="currentColor" stroke-width="1.8" stroke-linecap="round"/></symbol>
  <symbol id="alert" viewBox="0 0 24 24"><path d="M12 4 2.8 20h18.4z" fill="none" stroke="currentColor" stroke-width="1.8" stroke-linejoin="round"/><path d="M12 9v5m0 3h.01" fill="none" stroke="currentColor" stroke-width="2" stroke-linecap="round"/></symbol>
  <symbol id="chevron" viewBox="0 0 24 24"><path d="m9 6 6 6-6 6" fill="none" stroke="currentColor" stroke-width="1.8" stroke-linecap="round" stroke-linejoin="round"/></symbol>
  <symbol id="terminal" viewBox="0 0 24 24"><rect x="3" y="4" width="18" height="16" rx="2" fill="none" stroke="currentColor" stroke-width="1.8"/><path d="m7 9 3 3-3 3m6 0h4" fill="none" stroke="currentColor" stroke-width="1.8" stroke-linecap="round" stroke-linejoin="round"/></symbol>
</svg>
